# xmcd
#
# Track frame offsets:
#	150
#	13348
#	22543
#	37979
#	52776
#	68864
#	84219
#	97629
#	112943
#	127018
#	141087
#	156372
#	173112
#	189597
#
# Disc length: 2786 seconds
#
# Revision: 0
# Processed by: cddbd v1.5.2PL0 Copyright (c) Steve Scherf et al.
# Submitted via: EasyCDDAExtractor 16.0.6.1
#
DISCID=a10ae00e
DTITLE=Γιώργος Μαργαρίτης - Ένας Αιώνας τραγούδι Cd1
DYEAR=2012
DGENRE=Λαϊκά
TTITLE0=Πέφτεις σε λάθη (Γιώργος Μαργαρίτης)
TTITLE1=Σερσέ λα φαμ (Γιώργος Μαργαρίτης)
TTITLE2=Άλλα μου λεν τα μάτια σου (Γιώργος Μαργαρίτης)
TTITLE3=Θεσσαλονίκη μου (Γιώργος Μαργαρίτης)
TTITLE4=Σβήσε το φως να κοιμηθούμε (Γιώργος Μαργαρίτης)
TTITLE5=Πριν τα χάραμα (Γιώργος Μαργαρίτης)
TTITLE6=Χατζηκυριάκειο (Γιώργος Μαργαρίτης)
TTITLE7=Φραγκοσυριανή (Γιώργος Μαργαρίτης)
TTITLE8=Οι θαλασσινοί (Γιώργος Μαργαρίτης)
TTITLE9=Αντιλαλούν οι φυλακές (Γιώργος Μαργαρίτης)
TTITLE10=Αχάριστη (Γιώργος Μαργαρίτης)
TTITLE11=Ένας μάγκας στο Βοτανικό (Γιώργος Μαργαρίτης)
TTITLE12=Πεντάμορφη (Γιώργος Μαργαρίτης)
TTITLE13=Καρδιά παραπονιάρα (Γιώργος Μαργαρίτης)
EXTD=
EXTT0=
EXTT1=
EXTT2=
EXTT3=
EXTT4=
EXTT5=
EXTT6=
EXTT7=
EXTT8=
EXTT9=
EXTT10=
EXTT11=
EXTT12=
EXTT13=
PLAYORDER=
